<svg width="800" height="210" viewBox="0 0 800 210" fill="none" xmlns="http://www.w3.org/2000/svg">
<mask id="mask0_0_1" style="mask-type:alpha" maskUnits="userSpaceOnUse" x="0" y="0" width="800" height="210">
<rect width="800" height="210" rx="40" fill="#D9D9D9"/>
</mask>
<g mask="url(#mask0_0_1)">
<mask id="mask1_0_1" style="mask-type:alpha" maskUnits="userSpaceOnUse" x="0" y="0" width="800" height="210">
<rect width="800" height="210" fill="#D9D9D9"/>
</mask>
<g mask="url(#mask1_0_1)">
<rect width="573.279" height="357.847" transform="matrix(0.785636 -0.618689 0.785636 0.618689 -195.932 133.661)" fill="#252425"/>
<path d="M139.733 278.067L652.835 -126L1012.86 157.517L499.755 561.584L139.733 278.067Z" fill="#007ACC"/>
</g>
<rect x="213" y="13" width="570" height="185" rx="25" stroke="#252425" stroke-width="4" stroke-linecap="round" stroke-linejoin="round" stroke-dasharray="8 8"/>
<path d="M216 105.5C216 155.482 175.482 196 125.5 196C75.5182 196 35 155.482 35 105.5C35 55.5182 75.5182 15 125.5 15C175.482 15 216 55.5182 216 105.5Z" fill="#D9D9D9"/>
<g filter="url(#filter0_d_0_1)">
<path d="M101.161 146.533C101.161 147.116 100.507 147.583 99.6829 147.583C98.7448 147.67 98.0909 147.204 98.0909 146.533C98.0909 145.95 98.7448 145.483 99.5692 145.483C100.422 145.396 101.161 145.862 101.161 146.533ZM92.3202 145.221C92.1212 145.804 92.6897 146.475 93.5425 146.65C94.2817 146.941 95.1345 146.65 95.305 146.066C95.4756 145.483 94.9355 144.813 94.0827 144.55C93.3435 144.346 92.5192 144.638 92.3202 145.221ZM104.885 144.725C104.061 144.929 103.492 145.483 103.577 146.154C103.663 146.737 104.402 147.116 105.255 146.912C106.079 146.708 106.648 146.154 106.562 145.571C106.477 145.017 105.709 144.638 104.885 144.725ZM123.59 33C84.1615 33 54 63.7011 54 104.14C54 136.474 73.8423 164.143 102.184 173.881C105.823 174.552 107.102 172.248 107.102 170.353C107.102 168.546 107.017 158.574 107.017 152.452C107.017 152.452 87.1179 156.825 82.9391 143.763C82.9391 143.763 79.6984 135.279 75.0363 133.092C75.0363 133.092 68.5264 128.515 75.4911 128.602C75.4911 128.602 82.5696 129.185 86.4641 136.124C92.6897 147.379 103.123 144.142 107.188 142.218C107.842 137.553 109.689 134.317 111.736 132.392C95.8452 130.585 79.8121 128.223 79.8121 100.175C79.8121 92.1573 81.9726 88.1338 86.521 83.0023C85.7819 81.1072 83.3655 73.2934 87.2601 63.2055C93.2014 61.3104 106.875 71.0776 106.875 71.0776C112.56 69.4448 118.672 68.5993 124.727 68.5993C130.782 68.5993 136.894 69.4448 142.58 71.0776C142.58 71.0776 156.253 61.2812 162.195 63.2055C166.089 73.3226 163.673 81.1072 162.934 83.0023C167.482 88.1629 170.268 92.1864 170.268 100.175C170.268 128.311 153.524 130.556 137.633 132.392C140.249 134.696 142.466 139.069 142.466 145.921C142.466 155.746 142.381 167.904 142.381 170.295C142.381 172.19 143.689 174.493 147.299 173.823C175.726 164.143 195 136.474 195 104.14C195 63.7011 163.019 33 123.59 33ZM81.6314 133.559C81.2619 133.85 81.3472 134.521 81.8304 135.075C82.2853 135.541 82.9391 135.745 83.3087 135.366C83.6782 135.075 83.5929 134.404 83.1097 133.85C82.6548 133.384 82.001 133.18 81.6314 133.559ZM78.5613 131.197C78.3623 131.576 78.6466 132.043 79.2151 132.334C79.67 132.626 80.2385 132.538 80.4375 132.13C80.6365 131.751 80.3522 131.284 79.7837 130.993C79.2151 130.818 78.7603 130.905 78.5613 131.197ZM87.7718 141.576C87.3169 141.956 87.4875 142.83 88.1413 143.384C88.7952 144.055 89.6196 144.142 89.9891 143.676C90.3587 143.297 90.1881 142.422 89.6196 141.868C88.9942 141.197 88.1413 141.11 87.7718 141.576ZM84.531 137.291C84.0762 137.582 84.0762 138.34 84.531 139.011C84.9859 139.681 85.7534 139.973 86.123 139.681C86.5778 139.302 86.5778 138.544 86.123 137.874C85.725 137.203 84.9859 136.912 84.531 137.291Z" fill="#007ACC"/>
</g>
<g filter="url(#filter1_d_0_1)">
<path d="M498.118 105V70.1H511.618C513.318 70.1 514.835 70.3667 516.168 70.9C517.502 71.4 518.618 72.1333 519.518 73.1C520.452 74.0667 521.152 75.2333 521.618 76.6C522.085 77.9667 522.318 79.5 522.318 81.2C522.318 82.9 522.085 84.4333 521.618 85.8C521.152 87.1667 520.452 88.3333 519.518 89.3C518.618 90.2667 517.502 91.0167 516.168 91.55C514.835 92.05 513.318 92.3 511.618 92.3H505.668V105H498.118ZM505.668 86.25H509.718C511.485 86.25 512.702 85.9167 513.368 85.25C514.068 84.5833 514.418 83.4833 514.418 81.95V80.45C514.418 78.9167 514.068 77.8167 513.368 77.15C512.702 76.4833 511.485 76.15 509.718 76.15H505.668V86.25ZM549.899 105C548.365 105 547.132 104.617 546.199 103.85C545.265 103.05 544.715 101.917 544.549 100.45H544.299C543.832 102.15 542.899 103.433 541.499 104.3C540.132 105.167 538.449 105.6 536.449 105.6C533.949 105.6 531.932 104.933 530.399 103.6C528.899 102.233 528.149 100.333 528.149 97.9C528.149 95.2 529.132 93.2 531.099 91.9C533.065 90.6 535.949 89.95 539.749 89.95H543.899V88.65C543.899 87.1167 543.532 85.9667 542.799 85.2C542.099 84.4 540.899 84 539.199 84C537.632 84 536.365 84.3 535.399 84.9C534.432 85.5 533.599 86.2833 532.899 87.25L528.849 83.65C529.715 82.1833 531.065 80.9833 532.899 80.05C534.765 79.0833 537.149 78.6 540.049 78.6C543.582 78.6 546.332 79.4167 548.299 81.05C550.299 82.65 551.299 85.0833 551.299 88.35V99.65H554.149V105H549.899ZM539.249 100.75C540.549 100.75 541.649 100.433 542.549 99.8C543.449 99.1667 543.899 98.25 543.899 97.05V93.95H539.949C536.915 93.95 535.399 94.9667 535.399 97V98C535.399 98.9 535.749 99.5833 536.449 100.05C537.149 100.517 538.082 100.75 539.249 100.75ZM560.029 105V79.2H567.429V83.9H567.729C568.029 83.1667 568.396 82.4833 568.829 81.85C569.263 81.2167 569.779 80.6667 570.379 80.2C571.013 79.7 571.729 79.3167 572.529 79.05C573.363 78.75 574.296 78.6 575.329 78.6C576.563 78.6 577.696 78.8167 578.729 79.25C579.763 79.65 580.646 80.2667 581.379 81.1C582.113 81.9333 582.679 82.95 583.079 84.15C583.513 85.35 583.729 86.7333 583.729 88.3V105H576.329V89.3C576.329 85.9667 574.879 84.3 571.979 84.3C571.413 84.3 570.846 84.3833 570.279 84.55C569.746 84.6833 569.263 84.9167 568.829 85.25C568.396 85.55 568.046 85.9333 567.779 86.4C567.546 86.8667 567.429 87.4167 567.429 88.05V105H560.029ZM591.26 105V79.2H598.66V83.9H598.96C599.26 83.1667 599.626 82.4833 600.06 81.85C600.493 81.2167 601.01 80.6667 601.61 80.2C602.243 79.7 602.96 79.3167 603.76 79.05C604.593 78.75 605.526 78.6 606.56 78.6C607.793 78.6 608.926 78.8167 609.96 79.25C610.993 79.65 611.876 80.2667 612.61 81.1C613.343 81.9333 613.91 82.95 614.31 84.15C614.743 85.35 614.96 86.7333 614.96 88.3V105H607.56V89.3C607.56 85.9667 606.11 84.3 603.21 84.3C602.643 84.3 602.076 84.3833 601.51 84.55C600.976 84.6833 600.493 84.9167 600.06 85.25C599.626 85.55 599.276 85.9333 599.01 86.4C598.776 86.8667 598.66 87.4167 598.66 88.05V105H591.26ZM638.64 90.4H629.84V105H622.29V70.1H629.84V84.25H638.64V70.1H646.19V105H638.64V90.4ZM662.871 68H672.371L665.471 84.3H660.021L662.871 68ZM696.401 105.6C693.535 105.6 691.035 105.167 688.901 104.3C686.801 103.433 685.218 102.25 684.151 100.75L688.301 96.9C689.301 98 690.468 98.8667 691.801 99.5C693.168 100.1 694.718 100.4 696.451 100.4C697.918 100.4 699.068 100.183 699.901 99.75C700.735 99.2833 701.151 98.5833 701.151 97.65C701.151 96.9167 700.868 96.4167 700.301 96.15C699.735 95.85 698.951 95.6167 697.951 95.45L693.801 94.8C692.635 94.6333 691.551 94.3833 690.551 94.05C689.551 93.6833 688.685 93.2 687.951 92.6C687.218 92 686.635 91.2667 686.201 90.4C685.768 89.5333 685.551 88.4833 685.551 87.25C685.551 84.55 686.585 82.4333 688.651 80.9C690.718 79.3667 693.618 78.6 697.351 78.6C699.885 78.6 702.035 78.95 703.801 79.65C705.601 80.3167 707.035 81.2833 708.101 82.55L704.401 86.75C703.635 85.9167 702.651 85.2167 701.451 84.65C700.251 84.0833 698.801 83.8 697.101 83.8C694.235 83.8 692.801 84.6667 692.801 86.4C692.801 87.1667 693.085 87.7 693.651 88C694.218 88.2667 695.001 88.4833 696.001 88.65L700.101 89.3C701.268 89.4667 702.351 89.7333 703.351 90.1C704.351 90.4333 705.218 90.9 705.951 91.5C706.718 92.1 707.318 92.8333 707.751 93.7C708.185 94.5667 708.401 95.6167 708.401 96.85C708.401 99.55 707.351 101.683 705.251 103.25C703.185 104.817 700.235 105.6 696.401 105.6Z" fill="white"/>
</g>
<g filter="url(#filter2_d_0_1)">
<path d="M502.781 137.525H502.556C502.406 137.892 502.223 138.242 502.006 138.575C501.789 138.908 501.523 139.208 501.206 139.475C500.889 139.725 500.514 139.925 500.081 140.075C499.664 140.225 499.189 140.3 498.656 140.3C497.806 140.3 497.048 140.1 496.381 139.7C495.731 139.3 495.181 138.717 494.731 137.95C494.281 137.183 493.939 136.25 493.706 135.15C493.489 134.05 493.381 132.808 493.381 131.425C493.381 128.458 493.923 126.192 495.006 124.625C496.089 123.042 497.764 122.25 500.031 122.25C500.931 122.25 501.723 122.375 502.406 122.625C503.089 122.858 503.673 123.2 504.156 123.65C504.656 124.083 505.064 124.608 505.381 125.225C505.698 125.842 505.948 126.525 506.131 127.275L502.631 128.125C502.531 127.758 502.414 127.408 502.281 127.075C502.164 126.725 502.006 126.417 501.806 126.15C501.606 125.883 501.356 125.675 501.056 125.525C500.756 125.358 500.389 125.275 499.956 125.275C499.006 125.275 498.331 125.667 497.931 126.45C497.548 127.233 497.356 128.333 497.356 129.75V132.6C497.356 134.017 497.564 135.15 497.981 136C498.414 136.85 499.173 137.275 500.256 137.275C501.106 137.275 501.739 137.025 502.156 136.525C502.573 136.025 502.781 135.383 502.781 134.6V133.325H499.806V130.675H506.131V140H502.781V137.525ZM516.421 125.45C515.588 125.45 515.004 125.283 514.671 124.95C514.354 124.6 514.196 124.183 514.196 123.7V122.975C514.196 122.475 514.354 122.058 514.671 121.725C515.004 121.392 515.588 121.225 516.421 121.225C517.254 121.225 517.829 121.392 518.146 121.725C518.479 122.058 518.646 122.475 518.646 122.975V123.7C518.646 124.183 518.479 124.6 518.146 124.95C517.829 125.283 517.254 125.45 516.421 125.45ZM510.471 137.125H514.571V129.975H510.471V127.1H518.271V137.125H522.071V140H510.471V137.125ZM532.236 140C530.903 140 529.911 139.65 529.261 138.95C528.611 138.25 528.286 137.358 528.286 136.275V129.975H524.786V127.1H527.061C527.611 127.1 528.003 126.992 528.236 126.775C528.47 126.558 528.586 126.158 528.586 125.575V122.55H531.986V127.1H537.011V129.975H531.986V137.125H537.011V140H532.236ZM549.052 132.7H544.652V140H540.877V122.55H544.652V129.625H549.052V122.55H552.827V140H549.052V132.7ZM564.642 137.65H564.492C564.208 138.383 563.758 139.008 563.142 139.525C562.542 140.042 561.725 140.3 560.692 140.3C560.075 140.3 559.508 140.2 558.992 140C558.475 139.783 558.033 139.467 557.667 139.05C557.3 138.633 557.008 138.125 556.792 137.525C556.592 136.925 556.492 136.233 556.492 135.45V127.1H560.192V134.95C560.192 136.617 560.917 137.45 562.367 137.45C562.65 137.45 562.925 137.417 563.192 137.35C563.475 137.267 563.717 137.15 563.917 137C564.133 136.833 564.308 136.633 564.442 136.4C564.575 136.167 564.642 135.892 564.642 135.575V127.1H568.342V140H564.642V137.65ZM572.057 121.5H575.757V129.45H575.932C576.249 128.683 576.707 128.05 577.307 127.55C577.907 127.05 578.724 126.8 579.757 126.8C580.474 126.8 581.124 126.933 581.707 127.2C582.307 127.467 582.815 127.875 583.232 128.425C583.665 128.975 583.999 129.675 584.232 130.525C584.482 131.375 584.607 132.383 584.607 133.55C584.607 134.717 584.482 135.725 584.232 136.575C583.999 137.425 583.665 138.125 583.232 138.675C582.815 139.225 582.307 139.633 581.707 139.9C581.124 140.167 580.474 140.3 579.757 140.3C578.724 140.3 577.907 140.058 577.307 139.575C576.707 139.075 576.249 138.433 575.932 137.65H575.757V140H572.057V121.5ZM578.157 137.425C578.99 137.425 579.632 137.175 580.082 136.675C580.532 136.158 580.757 135.45 580.757 134.55V132.55C580.757 131.65 580.532 130.95 580.082 130.45C579.632 129.933 578.99 129.675 578.157 129.675C577.507 129.675 576.94 129.833 576.457 130.15C575.99 130.467 575.757 130.967 575.757 131.65V135.45C575.757 136.133 575.99 136.633 576.457 136.95C576.94 137.267 577.507 137.425 578.157 137.425ZM603.713 140V122.55H610.463C611.313 122.55 612.071 122.683 612.738 122.95C613.404 123.2 613.963 123.567 614.413 124.05C614.879 124.533 615.229 125.117 615.463 125.8C615.696 126.483 615.813 127.25 615.813 128.1C615.813 128.95 615.696 129.717 615.463 130.4C615.229 131.083 614.879 131.667 614.413 132.15C613.963 132.633 613.404 133.008 612.738 133.275C612.071 133.525 611.313 133.65 610.463 133.65H607.488V140H603.713ZM607.488 130.625H609.513C610.396 130.625 611.004 130.458 611.338 130.125C611.688 129.792 611.863 129.242 611.863 128.475V127.725C611.863 126.958 611.688 126.408 611.338 126.075C611.004 125.742 610.396 125.575 609.513 125.575H607.488V130.625ZM619.278 137.125H622.253V129.975H619.278V127.1H625.953V130.75H626.128C626.244 130.283 626.403 129.833 626.603 129.4C626.819 128.95 627.086 128.558 627.403 128.225C627.736 127.875 628.136 127.6 628.603 127.4C629.069 127.2 629.619 127.1 630.253 127.1H631.478V130.5H628.728C627.811 130.5 627.119 130.775 626.653 131.325C626.186 131.858 625.953 132.517 625.953 133.3V137.125H630.203V140H619.278V137.125ZM640.543 140.3C639.543 140.3 638.643 140.15 637.843 139.85C637.043 139.533 636.36 139.083 635.793 138.5C635.243 137.917 634.818 137.208 634.518 136.375C634.218 135.542 634.068 134.6 634.068 133.55C634.068 132.5 634.218 131.558 634.518 130.725C634.818 129.892 635.243 129.183 635.793 128.6C636.36 128.017 637.043 127.575 637.843 127.275C638.643 126.958 639.543 126.8 640.543 126.8C641.543 126.8 642.443 126.958 643.243 127.275C644.043 127.575 644.718 128.017 645.268 128.6C645.835 129.183 646.268 129.892 646.568 130.725C646.868 131.558 647.018 132.5 647.018 133.55C647.018 134.6 646.868 135.542 646.568 136.375C646.268 137.208 645.835 137.917 645.268 138.5C644.718 139.083 644.043 139.533 643.243 139.85C642.443 140.15 641.543 140.3 640.543 140.3ZM640.543 137.55C641.376 137.55 642.026 137.292 642.493 136.775C642.96 136.258 643.193 135.525 643.193 134.575V132.525C643.193 131.575 642.96 130.842 642.493 130.325C642.026 129.808 641.376 129.55 640.543 129.55C639.71 129.55 639.06 129.808 638.593 130.325C638.126 130.842 637.893 131.575 637.893 132.525V134.575C637.893 135.525 638.126 136.258 638.593 136.775C639.06 137.292 639.71 137.55 640.543 137.55ZM650.433 137.125H654.233V129.975H650.183V127.1H654.233V125.225C654.233 124.125 654.55 123.233 655.183 122.55C655.833 121.85 656.833 121.5 658.183 121.5H662.558V124.375H657.933V127.1H662.558V129.975H657.933V137.125H661.983V140H650.433V137.125ZM672.573 125.45C671.74 125.45 671.157 125.283 670.823 124.95C670.507 124.6 670.348 124.183 670.348 123.7V122.975C670.348 122.475 670.507 122.058 670.823 121.725C671.157 121.392 671.74 121.225 672.573 121.225C673.407 121.225 673.982 121.392 674.298 121.725C674.632 122.058 674.798 122.475 674.798 122.975V123.7C674.798 124.183 674.632 124.6 674.298 124.95C673.982 125.283 673.407 125.45 672.573 125.45ZM666.623 137.125H670.723V129.975H666.623V127.1H674.423V137.125H678.223V140H666.623V137.125ZM681.589 137.125H685.539V124.375H681.589V121.5H689.239V137.125H693.189V140H681.589V137.125ZM703.354 140.3C701.187 140.3 699.546 139.7 698.429 138.5C697.312 137.3 696.754 135.667 696.754 133.6C696.754 132.55 696.896 131.608 697.179 130.775C697.479 129.925 697.896 129.208 698.429 128.625C698.979 128.025 699.637 127.575 700.404 127.275C701.187 126.958 702.062 126.8 703.029 126.8C703.996 126.8 704.862 126.958 705.629 127.275C706.396 127.575 707.046 128.008 707.579 128.575C708.112 129.142 708.521 129.833 708.804 130.65C709.104 131.45 709.254 132.35 709.254 133.35V134.45H700.429V134.675C700.429 135.508 700.687 136.183 701.204 136.7C701.721 137.2 702.479 137.45 703.479 137.45C704.246 137.45 704.904 137.308 705.454 137.025C706.004 136.725 706.479 136.333 706.879 135.85L708.879 138.025C708.379 138.642 707.679 139.175 706.779 139.625C705.879 140.075 704.737 140.3 703.354 140.3ZM703.054 129.45C702.254 129.45 701.612 129.7 701.129 130.2C700.662 130.683 700.429 131.342 700.429 132.175V132.375H705.629V132.175C705.629 131.325 705.396 130.658 704.929 130.175C704.479 129.692 703.854 129.45 703.054 129.45Z" fill="white"/>
</g>
</g>
<defs>
<filter id="filter0_d_0_1" x="49" y="28" width="151" height="151" filterUnits="userSpaceOnUse" color-interpolation-filters="sRGB">
<feFlood flood-opacity="0" result="BackgroundImageFix"/>
<feColorMatrix in="SourceAlpha" type="matrix" values="0 0 0 0 0 0 0 0 0 0 0 0 0 0 0 0 0 0 127 0" result="hardAlpha"/>
<feOffset/>
<feGaussianBlur stdDeviation="2.5"/>
<feComposite in2="hardAlpha" operator="out"/>
<feColorMatrix type="matrix" values="0 0 0 0 0 0 0 0 0 0 0 0 0 0 0 0 0 0 0.25 0"/>
<feBlend mode="normal" in2="BackgroundImageFix" result="effect1_dropShadow_0_1"/>
<feBlend mode="normal" in="SourceGraphic" in2="effect1_dropShadow_0_1" result="shape"/>
</filter>
<filter id="filter1_d_0_1" x="494.118" y="64" width="218.283" height="45.6" filterUnits="userSpaceOnUse" color-interpolation-filters="sRGB">
<feFlood flood-opacity="0" result="BackgroundImageFix"/>
<feColorMatrix in="SourceAlpha" type="matrix" values="0 0 0 0 0 0 0 0 0 0 0 0 0 0 0 0 0 0 127 0" result="hardAlpha"/>
<feOffset/>
<feGaussianBlur stdDeviation="2"/>
<feComposite in2="hardAlpha" operator="out"/>
<feColorMatrix type="matrix" values="0 0 0 0 0 0 0 0 0 0 0 0 0 0 0 0 0 0 0.25 0"/>
<feBlend mode="normal" in2="BackgroundImageFix" result="effect1_dropShadow_0_1"/>
<feBlend mode="normal" in="SourceGraphic" in2="effect1_dropShadow_0_1" result="shape"/>
</filter>
<filter id="filter2_d_0_1" x="489.381" y="117.225" width="223.873" height="27.0751" filterUnits="userSpaceOnUse" color-interpolation-filters="sRGB">
<feFlood flood-opacity="0" result="BackgroundImageFix"/>
<feColorMatrix in="SourceAlpha" type="matrix" values="0 0 0 0 0 0 0 0 0 0 0 0 0 0 0 0 0 0 127 0" result="hardAlpha"/>
<feOffset/>
<feGaussianBlur stdDeviation="2"/>
<feComposite in2="hardAlpha" operator="out"/>
<feColorMatrix type="matrix" values="0 0 0 0 0 0 0 0 0 0 0 0 0 0 0 0 0 0 0.25 0"/>
<feBlend mode="normal" in2="BackgroundImageFix" result="effect1_dropShadow_0_1"/>
<feBlend mode="normal" in="SourceGraphic" in2="effect1_dropShadow_0_1" result="shape"/>
</filter>
</defs>
</svg>
